# xmcd
#
# Track frame offsets: 
#        150
#        10760
#        22816
#        33696
#        44411
#        59078
#        74097
#        86075
#        106375
#        125006
#        140749
#        161266
#        178773
#        191819
#        205783
#        220478
#        233763
#        247491
#        265041
#        281278
#
# Disc length: 4302 seconds
#
# Revision: 1
# Processed by: cddbd v1.5.2PL0 Copyright (c) Steve Scherf et al.
# Submitted via: ExactAudioCopyFreeDBPlugin 1.0
#
DISCID=3610cc14
DTITLE=Various Artist - Billy Connolly's Route 66 - Disc 2
DYEAR=2011
DGENRE=Rock
TTITLE0=The Rolling Stones - (Get Your Kicks On) Route 66
TTITLE1=Harry Nilsson - Everybody's Talkin'
TTITLE2=Elvis Presley - Mystery Train
TTITLE3=The Shadows - FBI
TTITLE4=Eric Weissberg and Deliverance - Duelling Banjos
TTITLE5=Albert Hammond - I'm A Train
TTITLE6=Dusty Springfield - Spooky
TTITLE7=The Isley Brothers - Shout
TTITLE8=Jeepster - T-Rex
TTITLE9=Steppenwolf - Born To Be Wild
TTITLE10=Isaac Hayes - Walk On By
TTITLE11=Marvin Gaye - What's Going On
TTITLE12=Nina Simone - Feeling Good
TTITLE13=Ike and Tina Turner - Shake A Tail Feather
TTITLE14=Staple Singers - I'll Take You There
TTITLE15=Marlena Shaw - California Soul
TTITLE16=Sly and The Family Stone - Hot Fun In The Sumertime
TTITLE17=Thunderclap Newman - Something In The Air
TTITLE18=The Beach Boys - Good Vibrations
TTITLE19=Lynyrd Skynyrd - Free Bird
EXTD=
EXTT0=
EXTT1=
EXTT2=
EXTT3=
EXTT4=
EXTT5=
EXTT6=
EXTT7=
EXTT8=
EXTT9=
EXTT10=
EXTT11=
EXTT12=
EXTT13=
EXTT14=
EXTT15=
EXTT16=
EXTT17=
EXTT18=
EXTT19=
PLAYORDER=
